<?xml version="1.0" encoding="UTF-8" standalone="no"?>
<svg width="32px" height="32px" viewBox="0 0 32 32" version="1.1" xmlns="http://www.w3.org/2000/svg" xmlns:xlink="http://www.w3.org/1999/xlink">
    <!-- Generator: Sketch 3.7.2 (28276) - http://www.bohemiancoding.com/sketch -->
    <title>PenIcon</title>
    <desc>Created with Sketch.</desc>
    <defs></defs>
    <g id="Page-1" stroke="none" stroke-width="1" fill="none" fill-rule="evenodd">
        <g id="PenIcon" fill="#7F7F7F">
            <g id="pen-icon" transform="translate(12.000000, 5.000000)">
                <path d="M1,0 C0.447738124,5.52179053e-05 5.52179053e-05,0.447738124 0,1 L0,19 C5.52179054e-05,19.5522619 0.447738124,19.9999448 1,20 L1.464844,20 L3.167969,22.554688 C3.3534684,22.8328258 3.66567883,22.9998786 4,22.9998786 C4.33432117,22.9998786 4.6465316,22.8328258 4.832031,22.554688 L6.535156,20 L7,20 C7.55226188,19.9999448 7.99994478,19.5522619 8,19 L8,1 C7.99994478,0.447738124 7.55226188,5.52179054e-05 7,0 L1,0 L1,0 Z M2,2 L6,2 L6,18 L2,18 L2,2 L2,2 Z M3.869141,20 L4.130859,20 L4,20.197266 L3.869141,20 L3.869141,20 Z" id="rect4139"></path>
            </g>
        </g>
    </g>
</svg>