<?xml version="1.0" encoding="UTF-8" standalone="no"?>
<svg width="32px" height="32px" viewBox="0 0 32 32" version="1.1" xmlns="http://www.w3.org/2000/svg" xmlns:xlink="http://www.w3.org/1999/xlink">
    <!-- Generator: Sketch 3.7.2 (28276) - http://www.bohemiancoding.com/sketch -->
    <title>UndoIcon</title>
    <desc>Created with Sketch.</desc>
    <defs></defs>
    <g id="Page-1" stroke="none" stroke-width="1" fill="none" fill-rule="evenodd">
        <g id="UndoIcon" fill="#7F7F7F">
            <g transform="translate(4.000000, 7.000000)">
                <polygon id="path4768" points="1.7070312 7.2921 0.2929688 8.7062 4 12.4151 7.707031 8.7062 6.292969 7.2921 4 9.5851 1.7070312 7.2921"></polygon>
                <path d="M12,0 C7.041282,0 3,4.0413 3,9 C3,9.688506 3.0849619,10.355229 3.2324219,11 L5.2929688,11 C5.1054276,10.366254 5,9.696149 5,9 C5,5.1222 8.122162,2 12,2 C15.877838,2 19,5.1222 19,9 C19,12.8779 15.877838,16 12,16 L12,18 C16.958718,18 21,13.9587 21,9 C21,4.0413 16.958718,0 12,0 L12,0 Z" id="path4770"></path>
            </g>
        </g>
    </g>
</svg>