<?xml version="1.0" encoding="UTF-8" standalone="no"?>
<svg width="32px" height="32px" viewBox="0 0 32 32" version="1.1" xmlns="http://www.w3.org/2000/svg" xmlns:xlink="http://www.w3.org/1999/xlink">
    <!-- Generator: Sketch 3.7.2 (28276) - http://www.bohemiancoding.com/sketch -->
    <title>RedoIcon</title>
    <desc>Created with Sketch.</desc>
    <defs></defs>
    <g id="Page-1" stroke="none" stroke-width="1" fill="none" fill-rule="evenodd">
        <g id="RedoIcon">
            <g id="UndoButton" transform="translate(17.000000, 16.000000) scale(-1, 1) rotate(-359.000000) translate(-17.000000, -16.000000) translate(7.000000, 7.000000)">
                <polyline id="path4768" stroke="#7F7F7F" stroke-width="2" points="0 8 3 11 6 8"></polyline>
                <path d="M11,0 C6.041282,0 2,4.0413 2,9 C2,9.688506 2.0849619,10.355229 2.2324219,11 L4.2929688,11 C4.1054276,10.366254 4,9.696149 4,9 C4,5.1222 7.122162,2 11,2 C14.877838,2 18,5.1222 18,9 C18,12.8779 14.877838,16 11,16 L11,18 C15.958718,18 20,13.9587 20,9 C20,4.0413 15.958718,0 11,0 L11,0 Z" id="path4770" fill="#7F7F7F"></path>
            </g>
        </g>
    </g>
</svg>