<?xml version="1.0" encoding="UTF-8" standalone="no"?>
<svg width="32px" height="32px" viewBox="0 0 32 32" version="1.1" xmlns="http://www.w3.org/2000/svg" xmlns:xlink="http://www.w3.org/1999/xlink">
    <!-- Generator: Sketch 3.7.2 (28276) - http://www.bohemiancoding.com/sketch -->
    <title>RedoIcon</title>
    <desc>Created with Sketch.</desc>
    <defs></defs>
    <g id="Page-1" stroke="none" stroke-width="1" fill="none" fill-rule="evenodd">
        <g id="RedoIcon" fill="#7F7F7F">
            <g transform="translate(7.000000, 7.000000)">
                <polygon id="path4768" points="14.707031 7.2921 13.292969 8.7062 17 12.4151 20.707031 8.7062 19.292969 7.2921 17 9.5851"></polygon>
                <path d="M9,0 C13.958718,0 18,4.0413 18,9 C18,9.6885 17.91504,10.3552 17.767578,11 L15.707031,11 C15.894572,10.3663 16,9.6961 16,9 C16,5.1222 12.877838,2 9,2 C5.122162,2 2,5.1222 2,9 C2,12.8779 5.122162,16 9,16 L9,18 C4.041282,18 0,13.9587 0,9 C0,4.0413 4.041282,0 9,0 L9,0 Z" id="path4770"></path>
            </g>
        </g>
    </g>
</svg>