<?xml version="1.0" encoding="UTF-8" standalone="no"?>
<svg width="32px" height="32px" viewBox="0 0 32 32" version="1.1" xmlns="http://www.w3.org/2000/svg" xmlns:xlink="http://www.w3.org/1999/xlink">
    <!-- Generator: Sketch 3.6.1 (26313) - http://www.bohemiancoding.com/sketch -->
    <title>PenIcon Copy</title>
    <desc>Created with Sketch.</desc>
    <defs></defs>
    <g id="Page-1" stroke="none" stroke-width="1" fill="none" fill-rule="evenodd">
        <g id="PenIcon-Copy" fill="#7F7F7F">
            <g id="PenButton" transform="translate(12.000000, 5.000000)">
                <path d="M4.83205029,22.5547002 L6.83205029,19.5547002 C7.27508678,18.8901455 6.79869538,18 6,18 L2,18 C1.20130462,18 0.724913219,18.8901455 1.16794971,19.5547002 L3.16794971,22.5547002 C3.56377175,23.1484333 4.43622825,23.1484333 4.83205029,22.5547002 L4.83205029,22.5547002 Z M3.16794971,21.4452998 L4.83205029,21.4452998 L2.83205029,18.4452998 L2,20 L6,20 L5.16794971,18.4452998 L3.16794971,21.4452998 L3.16794971,21.4452998 Z" id="Triangle-1"></path>
                <path d="M7,2 L6,1 L6,19 L7,18 L1,18 L2,19 L2,1 L1,2 L7,2 Z M0,1 L0,19 C0,19.5522847 0.44771525,20 1,20 L7,20 C7.55228475,20 8,19.5522847 8,19 L8,1 C8,0.44771525 7.55228475,0 7,0 L1,0 C0.44771525,0 0,0.44771525 0,1 Z" id="Rectangle-1"></path>
            </g>
        </g>
    </g>
</svg>