<?xml version="1.0" encoding="UTF-8" standalone="no"?>
<svg width="32px" height="32px" viewBox="0 0 32 32" version="1.1" xmlns="http://www.w3.org/2000/svg" xmlns:xlink="http://www.w3.org/1999/xlink">
    <!-- Generator: Sketch 3.6.1 (26313) - http://www.bohemiancoding.com/sketch -->
    <title>EraserIcon Copy</title>
    <desc>Created with Sketch.</desc>
    <defs></defs>
    <g id="Page-1" stroke="none" stroke-width="1" fill="none" fill-rule="evenodd">
        <g id="EraserIcon-Copy" fill="#7F7F7F">
            <g id="EraserButton" transform="translate(10.000000, 6.000000)">
                <path d="M3,16.0016655 L3,16.0016655 L3,17.9983345 C3,18.554425 3.44587657,19 4.00032973,19 L7.99967027,19 C8.54898592,19 9,18.5493403 9,17.9983345 L9,16.0016655 C9,15.445575 8.55412343,15 7.99967027,15 L4.00032973,15 C3.45101408,15 3,15.4506597 3,16.0016655 L3,16.0016655 Z M4.00032973,14 L7.99967027,14 C9.65670662,14 11,14.3390201 11,16.0016655 L11,17.9983345 C11,19.6561086 9.6513555,21 7.99967027,21 L4.00032973,21 C2.34329338,21 1,19.6609799 1,17.9983345 L1,16.0016655 C1,14.3438914 2.3486445,14 4.00032973,14 Z" id="Rectangle-2"></path>
                <path d="M2,1.00087166 L2,1.00087166 L2,14.9991283 C2,14.4478049 1.55040041,14 1.00247329,14 L10.9975267,14 C10.444907,14 10,14.4420827 10,14.9991283 L10,1.00087166 C10,1.55219514 10.4495996,2 10.9975267,2 L1.00247329,2 C1.555093,2 2,1.55791733 2,1.00087166 L2,1.00087166 Z M0,1.00087166 C0,0.448105505 0.455760956,0 1.00247329,0 L10.9975267,0 C11.5511774,0 12,0.444630861 12,1.00087166 L12,14.9991283 C12,15.5518945 11.544239,16 10.9975267,16 L1.00247329,16 C0.448822582,16 0,15.5553691 0,14.9991283 L0,1.00087166 L0,1.00087166 Z" id="Rectangle-1"></path>
            </g>
        </g>
    </g>
</svg>