<?xml version="1.0" encoding="UTF-8" standalone="no"?>
<svg width="32px" height="32px" viewBox="0 0 32 32" version="1.1" xmlns="http://www.w3.org/2000/svg" xmlns:xlink="http://www.w3.org/1999/xlink">
    <!-- Generator: Sketch 3.7.2 (28276) - http://www.bohemiancoding.com/sketch -->
    <title>EraserIcon</title>
    <desc>Created with Sketch.</desc>
    <defs></defs>
    <g id="Page-1" stroke="none" stroke-width="1" fill="none" fill-rule="evenodd">
        <g id="EraserIcon" fill="#7F7F7F">
            <g id="eraser-icon" transform="translate(10.000000, 6.000000)">
                <path d="M1,8.8817842e-16 C0.447738124,5.52179053e-05 5.52179053e-05,0.447738124 0,1 L0,15 C5.52179053e-05,15.5522619 0.447738124,15.9999448 1,16 L1,18 C1,19.6447 2.355297,21 4,21 L8,21 C9.644703,21 11,19.6447 11,18 L11,16 C11.5522619,15.9999448 11.9999448,15.5522619 12,15 L12,1 C11.9999448,0.447738124 11.5522619,5.52179053e-05 11,0 L1,8.8817842e-16 L1,8.8817842e-16 Z M2,2 L10,2 L10,14 L2,14 L2,2 L2,2 Z M3,16 L9,16 L9,18 C9,18.5713 8.571297,19 8,19 L4,19 C3.428703,19 3,18.5713 3,18 L3,16 L3,16 Z" id="rect4140"></path>
            </g>
        </g>
    </g>
</svg>