<?xml version="1.0" encoding="UTF-8" standalone="no"?>
<svg width="32px" height="32px" viewBox="0 0 32 32" version="1.1" xmlns="http://www.w3.org/2000/svg" xmlns:xlink="http://www.w3.org/1999/xlink">
    <!-- Generator: Sketch 3.6.1 (26313) - http://www.bohemiancoding.com/sketch -->
    <title>PenIcon Copy</title>
    <desc>Created with Sketch.</desc>
    <defs></defs>
    <g id="Page-1" stroke="none" stroke-width="1" fill="none" fill-rule="evenodd">
        <g id="PenIcon-Copy">
            <g id="PenButton" transform="translate(12.000000, 5.000000)">
                <polygon id="Triangle-1" stroke="#7F7F7F" stroke-width="2" stroke-linejoin="round" transform="translate(4.000000, 20.500000) scale(1, -1) translate(-4.000000, -20.500000) " points="4 19 6 22 2 22 "></polygon>
                <path d="M7,2 L6,1 L6,19 L7,18 L1,18 L2,19 L2,1 L1,2 L7,2 Z M0,1 L0,19 C0,19.5522847 0.44771525,20 1,20 L7,20 C7.55228475,20 8,19.5522847 8,19 L8,1 C8,0.44771525 7.55228475,0 7,0 L1,0 C0.44771525,0 0,0.44771525 0,1 Z" id="Rectangle-1" fill="#7F7F7F"></path>
            </g>
        </g>
    </g>
</svg>